<svg width="30" height="30" viewBox="0 0 30 30" fill="none" xmlns="http://www.w3.org/2000/svg">
<title>Save image</title>
<path d="M1.25 27.5H28.75C29.0815 27.5 29.3995 27.6317 29.6339 27.8661C29.8683 28.1005 30 28.4185 30 28.75C30 29.0815 29.8683 29.3995 29.6339 29.6339C29.3995 29.8683 29.0815 30 28.75 30H1.25C0.918479 30 0.600537 29.8683 0.366117 29.6339C0.131696 29.3995 0 29.0815 0 28.75C0 28.4185 0.131696 28.1005 0.366117 27.8661C0.600537 27.6317 0.918479 27.5 1.25 27.5ZM16.25 17.59L25.48 8.3575L27.2475 10.125L14.875 22.5L2.5 10.125L4.2675 8.3575L13.75 17.84V0H16.25V17.59Z" fill="#F7FBFF"/>
</svg>
